<svg id="Layer_1" data-name="Layer 1" xmlns="http://www.w3.org/2000/svg" viewBox="0 0 315.11 145.36"><path d="M50.35,66.24h8.78l2.45,15.31c.5,3.53.75,9.34.75,9.34h.1s2.49-6.46,4.41-10.4l6.92-14.25h8.16l-16.5,34.09H56.64L54.19,85.21c-.58-3.62-.82-9.48-.82-9.48h-.1s-2.45,6.5-4.37,10.45l-6.84,14.15H33.85Z" transform="translate(-22.44 -7.65)" style="fill:#fff"/><path d="M77.65,87.5,88,66.24H96.5l-10.61,22c-1.89,4-1,6.6,4.3,6.6a9.71,9.71,0,0,0,9.19-6l10.93-22.59h8.57L107.7,89.38C103.91,97.26,97.64,101,88.24,101,78.13,101,73.38,96.26,77.65,87.5Z" transform="translate(-22.44 -7.65)" style="fill:#fff"/><path d="M124.73,66.24h8.57L120,93.78h17.2L134,100.33H108.23Z" transform="translate(-22.44 -7.65)" style="fill:#fff"/><path d="M155.17,66.24h8.57L150.42,93.78h17.19l-3.17,6.55H138.67Z" transform="translate(-22.44 -7.65)" style="fill:#fff"/><path d="M172.8,92.82h8.42l-3.64,7.51h-8.42Z" transform="translate(-22.44 -7.65)" style="fill:#fff"/><rect y="100.85" width="315.11" height="3" style="fill:#ed1c24"/><path d="M270,120.68l-.92.24a19.29,19.29,0,0,1-.25,2,11.71,11.71,0,0,1-.68,2,14.44,14.44,0,0,1-1.15,2,5.58,5.58,0,0,0,.32,4.57c-.49.68-1,1.34-1.45,2-.25.43-.55,1.09-.42,1.37a1.82,1.82,0,0,1,0,1.34c-.21.73,0,1.4-.48,2.21-.39.64-.28,1.47-.92,2.14-.17.18-.13.55-.22.83-.3.88-.17,1.81-.87,2.63s-.31,1.55-1,2.35c-.5.57-.46,1.63-.69,2.64l-1.07.72.24.81a2.25,2.25,0,0,0-.37.38,4.14,4.14,0,0,0-.26.62l-.84.06L257.71,153c-.93-.86-2.07-1.24-2.9-2.12a11.91,11.91,0,0,0-2.85-1.73l1.08-4.58.92-.82c.16-1.34.83-2.7.61-4.06a3.38,3.38,0,0,1,.87-2.1,4.92,4.92,0,0,0,.9-2.38,6.94,6.94,0,0,1,1.69-3.43l-.68-1.93c.35-.42.57-1.17,1.46-1.25l-.13-1.55a10.4,10.4,0,0,0,2.29-4.7,3.18,3.18,0,0,1,.61-1.35c.37-.53.71-1.4.22-1.65a18.86,18.86,0,0,1-4.07-1.17c-.75-.42-1.71-.68-2.19-1.54-.15-.28-.53-.38-.78-.61a5.94,5.94,0,0,1-1.29-1.36,9,9,0,0,0-2.09-2.86l.42-1.75c-.38-.52-.55-1.18-1.44-1.18-.33,0-.45-.87-.7-1.45l.61-2.59-1.24-1,.25-1.07.81-.28c.26-2.23.54-4.49.81-6.76L250,95c-.1-1,.78-2.22.35-3.15l1.5-2.11c-.63-.93.81-2.41.11-3.38a7.34,7.34,0,0,0,.71-1.51c.14-.7.66-1,1.23-1.52,0-.52.06-1.18.17-1.84a2.71,2.71,0,0,1,.45-1,2.64,2.64,0,0,0,.43-2.82c-.92.06-1.88.06-2.86.2a15.64,15.64,0,0,0-2.13.64,9.14,9.14,0,0,1-1.39,3.14,19.4,19.4,0,0,0-1.42,2.81c-.71,1.31-.94,2.77-1.91,4,.67,1.42-.83,2.13-1.54,3.11-.07,2-.24,2-1.23,4.39-.51,1.27-1.82,2.59-1.2,4,.1.25-.35.86-.63,1.51.87,1-.86,1.94-1.25,3.11l1.2.25a12.66,12.66,0,0,0-.72,1.24c-.2.45-.12.93-.64,1.35a1.28,1.28,0,0,0-.3,1,3.83,3.83,0,0,1-.65,2.85,16.68,16.68,0,0,0-.76,2.94c0,.15-.31.3-.47.45a5.47,5.47,0,0,1-.23,2.65c-.33,1.12-.46,2.26-.85,3.37a25.06,25.06,0,0,1-1.38,2.8c-1.59,1.09-2.93.5-4.44.72l.28-1.56c-.26-.25-.69-.25-.65-.87,0-.31-.61-.45-.83-.77s-.16-.72-.35-1c-.29-.43.15-1,.06-1.36a16.23,16.23,0,0,0-.62-1.87c.41-1.22.75-2.07,1-2.94a9.83,9.83,0,0,1,1-2.58c.39-.65,1.06-1.31.62-2.22-.23-.48.3-1.5.53-2.49l1-.57c0-1,.76-2,.25-2.66l1.93-2.85-1.26-1.39c1.09-.77.77-1.93,1.66-2.63a9,9,0,0,1,1.68-3.89,1.16,1.16,0,0,0,0-.93c-.27-.67.3-1.13.62-1.65l-.28-2.43,1.38-1.94.38-3.07a1.29,1.29,0,0,0-1.62.29,6.23,6.23,0,0,1-4.22,1.66l-1,1.24h-1.25c-1.05,1.53-2.52,2.31-3.79,3.62l-.28,1.21c-.8,1.45-1.56,2.28-2.07,3.34-.32.66-.51,1.72-1.49,2.07-.71,1.22-1.51,2.42-2.1,3.67s-.74,2.29-1.26,3.4-.71,2.45-2,3.28l.3.86c-1.1,1.06-1.38,2.58-2.07,4a19.05,19.05,0,0,0-1.73,3.18c-.36,1.22-1.21,2.43-1.5,3.7a10.09,10.09,0,0,1-2,3.86l-2.26.49c-2.37-.64-4.43-2.43-7.26-3-1,1.4-1.36,3-2.59,4.1.71,1.13-.71,1.88-1.1,2.8a3.74,3.74,0,0,1-.68,2.83,7.6,7.6,0,0,0-.91,2.15,7.64,7.64,0,0,1-.7,1.5l.27.57c-.89,1.59-1.9,3.23-2.69,4.94a14.88,14.88,0,0,0-.82,3.13,9.45,9.45,0,0,1-1.44,2.92c.15,1.55.13,1.61-1.4,3.09L187.47,151l-1.14.56-.34-.39a6.59,6.59,0,0,1-.65.32c-.25.09-.5.13-.74.2-1.16-1.13-2.87-1.56-3.55-3.36.67-2.83,2.6-5.71,3.07-8.69.53-1,1.08-2.06,1.6-3.09,0-.07-.12-.2-.2-.31l1-.88.31-1.34,1-.49.06-1.61a12.23,12.23,0,0,0,2.1-4.44l1.72-2,1.48-.12.17-.73-1.6.15c0-.14-.27-.56-.13-.91.29-.69.85-1.31,1.17-2,.94-2,2.48-3.85,3.08-6a11.83,11.83,0,0,1,1.43-2.81c.53-.89.7-1.85,1.16-2.73s1.1-1.52,1.47-2.32a14.8,14.8,0,0,0,.7-2.37l1.93-3.12-.31-.51.92-.79.66-2.79a17.75,17.75,0,0,0-1.93,0,10.58,10.58,0,0,0-1.88.42,3.62,3.62,0,0,1-1.46.05c-.52,0-1.19.56-1.81.75a16.6,16.6,0,0,1-2.09.34c-.63-.38-1-1.92-2.7-.62l-.42,1.77-1,.82c.51.6-.69,1.15-.46,1.74-1.1.88-1.1,2.29-2,3.26a15.58,15.58,0,0,0-1.79,3.36,21.47,21.47,0,0,0-1.38,3.56,17,17,0,0,1-2.06,4.16c-.42.9-.38,1.85-1.11,2.77-.25.31,0,1,0,1.47a6.72,6.72,0,0,1-3.42.62c-.86-1.18-2.86-.74-3.54-2.3l.24-1.32-.55-.8c1.24-.8,1.43-2.22,2.32-3.51l-.6-.39.28-1.18,1.56-1.23c1-1.31.15-1.67,0-2.23.55-1.84,2.1-3.07,3-4.65l-.22-.32,1.07-1-.07-1.4c.92-1.6,1.45-3.56,2.73-5.25l1.48-1.24a4.64,4.64,0,0,1,1.47-3l.41-1.72c1.55-1,1.87-2.53,2.11-4l1.46-1.67,1.21-3.26-.15-.24,1.81-3-.29-.5,3.61-5.41a6.18,6.18,0,0,1,1.32-3,6.33,6.33,0,0,0,.74-2.26l-.68-.22c0-1.45,1.24-2.2,2.28-3.18-.85-1.51,1-3,1-4.44.45-.62.82-1.06,1.11-1.55s.6-.94.52-1.21c-.16-.6.51-.9.55-1.43a4.52,4.52,0,0,1,.62-2.47c.65-.75.24-1.4.77-2.09s.11-1.4,0-2.06c-.07-.34-.34-.59-.7-1.16,1.73-.06,3.33-1.33,4.53-.18,2-.09,3.41,1.24,5.52.9.57-.09,1.09.5,1.74.84-.4.89-.76,1.65-1.07,2.42-.67,1.71-1.44,3.4-2.08,5.12s-1.25,3.44-1.93,5.15a10.1,10.1,0,0,1-.92,1.9,44.61,44.61,0,0,0-2.54,4.17c-.35.65-.86,1.59-1.82,1.58-.54,1.68-1,3.32-1.63,4.92a13.19,13.19,0,0,1-1.67,2.26l-.11,1.76c-.59.6-1.31,1.25-1.94,2s-1.1,1.49-1.71,2.35a33.35,33.35,0,0,1-3,7.29,3.36,3.36,0,0,1,.21.56,5.72,5.72,0,0,1,.07.7c1.18-.29,2.31-.57,3.43-.83,1.7-.4,3.41-.65,5-2a3,3,0,0,1,1.28-.54c2.07-.51,2.12-.53,3.56-2.32l.61-2.58,1-.69c.27-1.11.23-2.3.79-3,1.1-1.43,1.17-3.16,2.28-4.41l.67-.18,1-4.35.79-.27.41-1.75,1-.78a8.4,8.4,0,0,1,3-4.35l-.27-.46,1-1.82.56-.12c.57-.92.07-1.33-.29-1.84a6.13,6.13,0,0,0,.7-1.27,2.64,2.64,0,0,0-.11-1.08l1.41-1.63,1.11-2.69,1.57-.93-.23-.88,1.38-1.51s.11-.46.21-.85l1.16-1.06c0-.78-.89-1-.26-2.09l1.78-1.16c-.36-1.25.29-2.58.45-3.6,1-1.68,2.56-2.86,2.94-4.47.25-1.1,1.57-2.15,1-3.2l1.44-1.24-.22-.22.89-1.54-.3-.67.53-.73-.22-.67,1.66-1.52c-.26-.8.85-1.67.53-2.6.57-.63.81-1.68,1.88-1.8.68-1.11,1.66-2.2.9-3.2.71-1.48,2.4-2.52,1.82-4.18l.75-.65,1-2.27-.22-.42a16.3,16.3,0,0,0,1.4-1.57,17.29,17.29,0,0,0,1-1.85l1.21-.55,2.92,2.08h1.51a2,2,0,0,1,.4.61,9.66,9.66,0,0,1,.69,3.51c-.25,1.94,0,3.79-.48,5.75-1.9.84-2.88,2.53-3.74,4.25A32.61,32.61,0,0,1,248,28.64a23.19,23.19,0,0,0-1.68,2.46c-.38.57-.75,1.15-1.12,1.73l.16.24-1.83,2.33-1,.57c-.09.22-.22.43-.18.47.65.75-.11,1.58-.57,2.17s-1.13,1.12-1.26,2c-.05.33-.61.71-.94,1.06l.25.35-.89.8L237.6,46.2a35.07,35.07,0,0,1-4.13,5.33c-.1.11-.36.07-.53.1-.62,2.08-1.19,4.1-2.88,5.6l-.14,2.43-1.56,1.17-.65,2.75-.82.7-1,2.26.21.41-.62.56-.67-.4-.78.63-.33,1.38a3.23,3.23,0,0,0,.45.57c.11.09.32.08.52.12-1.19,1.17-1.39,2.91-2.8,3.81-.5,1.83-.5,1.83-.33,2.75-.92,1.72-1.3,3.57-2.55,5.21l.59,1.17,2.31-2.51-.16-1.31c0-.07.06-.19.08-.19,1.37-.24,1.46-1.59,2.1-2.46s1.23-1.74,1.84-2.62c.27-.41.52-.84.82-1.32.33-.12.77-.23,1.2-.43a13.53,13.53,0,0,0,1.3-.78l.08-2.42,1.1-.94.05-1.41,2.09-1.61c-.1-.42.93-.93.52-1.56.47-.53,1-1,1.4-1.62.77-1,1.5-2.09,2.53-3.54a8.92,8.92,0,0,1,.77-1.88,42.49,42.49,0,0,0,1.85-4.28,3.16,3.16,0,0,1,1.42-1.65l1.5-3.7c1.9-.88,2.34-3,3.34-4.7a26.79,26.79,0,0,0,1.27-3l2.44-2.73c.17-.71.34-1.41.46-1.94l4.33-4.94,2-.31.41.59a1.77,1.77,0,0,0,1.85-.55c.15.36.19.82.44,1a8.42,8.42,0,0,0,3.9,1.23c.37.05.46.69,1.05.24s.88-.32,1.17.09,1.13-.16,1.19.6a5.17,5.17,0,0,1,.13,1.65c-.46,1.78-.52,3.59-1.61,5.32-.43.67-1,1.42-.88,2.13s-1.34,1.32-.55,2l-1.36,2.56.26.42-1.06,1.41c-.48,2-.48,2-1.07,2.84l.31.49c-.23.64-1.23,1.27-.57,2l-1.07,1.5c-.09,1-.76,2.16-.52,3.29L257,59.13c-.51,1.29-.71,2.62-1.45,3.49-.88,1-.3,2.27-1.42,3.07l.21.37L253,67.68l-.25,2.73,2.8,1.4c1.26-.59,1.2-2.08,2-3.09s.76-2.3,1.08-3.41l1.52-2.13,1.6-4.35.67-.48,1.92-4.49-.19-.51c.58-.94,1.2-1.82,1.68-2.75a3.67,3.67,0,0,0,.39-3l1.35-.89a8.39,8.39,0,0,1,.78-2.23c1.51-1.84,2.23-4.13,4-5.9l.38-1.61.13.18.75-1.09.69,1.55c.66,0,.91-.27,1.36-1.45.86-.55,1.68-1,2.38-.25.12.13.52.11.76,0,1.71-.78,3.23-.34,4.81-.37a10.66,10.66,0,0,1,2.5.53l.5.68a10.47,10.47,0,0,1,.27,2.86,6.41,6.41,0,0,0,.23,2.7l-.58.64c-.26,1.06-.59,2.19-.77,3.31a12.8,12.8,0,0,1-1.44,3.55,2.82,2.82,0,0,0-.38,2.52,2.58,2.58,0,0,0-.34.5c-.27.66-.46,1.34-.77,2S282,56,281.65,56.61s-.1,1.39-.84,1.92c.71.81-.68,1.54-.65,2.42a9.12,9.12,0,0,1-.61,2.73c-.11.38-.45.73-.58,1.11a50.2,50.2,0,0,0-2,4.7c-.27,1.08-1.12,2.08-1.14,3.2,0,.37,0,.74,0,1.35-.16.41-1.08,1-.44,1.71l-1.31,1.89-1.5.59c-1-1.12-2.25-2-3.19-3.14a6,6,0,0,0-2.9-1.74,10.21,10.21,0,0,0-1.37,1.77,3.26,3.26,0,0,1-.83,1.25,1.06,1.06,0,0,0-.29,1.58,4.22,4.22,0,0,0-1.35,2.4c-.3,1.08-.8,2.14-1.11,3.21-.16.55,0,1.13-.18,1.67s-.84,1.07-1,1.6c-.53,2.13-1.38,4.32-1,6.33a4.55,4.55,0,0,1-.21,2,10.92,10.92,0,0,1-.77,1.73c-.23.51.39,1-.37,1.55a3.86,3.86,0,0,0,.31,3c-.2.48-.57,1-.52,1.33.09.72.53,1.32.23,2.19,1.13,1,.68,3.09,2.17,4a17.73,17.73,0,0,0,3.37-2c1.15-.85,2.38-1.54,3.26-2.11.58-1.08,1-1.83,1.37-2.58a25.48,25.48,0,0,0,1.3-2.68,24.75,24.75,0,0,1,1.67-2.92,2,2,0,0,0,.15-1.29L273,92.66l-.25-.41c.23-.41.73-1,.67-1.24-.15-.74.39-1.56.26-2.48l1.61-1.92c.14-1.07.69-2.28.5-3.51a3.31,3.31,0,0,1,.86-2.09c1.12-1.28,1.14-2.87,2.11-4.16.12-.16.1-.41.16-.62.31-1.08-.2-2,.7-3.29.63-.89.6-2.2.87-3.33.64-.9,1.73-1.73,1-2.83l1.88-3c0-.13-.21-.5-.09-.66.89-1.26,1.22-2.71,2-3.95a5.91,5.91,0,0,0,.81-2,4.42,4.42,0,0,1,.38-1.46c.32-.44.25-.86.49-1.26a9.66,9.66,0,0,0,.71-1.29,12.31,12.31,0,0,0,.62-2.05A8.52,8.52,0,0,1,289.53,48l-.21-.42a13.72,13.72,0,0,0,.83-2.37c.15-1.13,1-2.14,1.15-3.2a13.33,13.33,0,0,1,1.32-3.39,25.52,25.52,0,0,1,1.48-3,14.94,14.94,0,0,0,1.44-3.06c.2-.59.56-1.15.78-1.73a4.16,4.16,0,0,1,.72-1.55c.33-.38.3-1.08.45-1.7l4.22-3.19c.43.35,1,.57,1.16,1s1.16.09.77,1c0,.05.13.21.23.22,1.45,0,1.85,1.27,2.56,2.16.36,2-.52,4.06-.9,6.06L304,36.65a10.72,10.72,0,0,1-3,5.54l.14,1.51-1.4,1a31.13,31.13,0,0,1-2.78,6.71,34.38,34.38,0,0,0-1.53,3.89l-.8.57-.18,2c-.51.73-1.44,1.59-.88,2.82l-.93.61-.25,1.05-1.69.74-.3,1.27,1.06,1-1.82,1.69.1,1.69L288,71.23l.47.63a5.25,5.25,0,0,1-.93,2.79c-.79,1.66-1.41,3.35-2.32,5a1.79,1.79,0,0,1-1.34,1.09,1.14,1.14,0,0,0,.1,1.68L283.28,84c.34,0,.61,0,.68,0,2.14-2.87,4.46-5.59,6.53-8.53a71.09,71.09,0,0,1,5.29-7,17.88,17.88,0,0,0,1.64-2.71l.32-1.35L299.61,63a4.3,4.3,0,0,1,1.84-2.81,9.51,9.51,0,0,1,2.81-4.71A11.81,11.81,0,0,0,305.89,53c.34-.54.46-1.29.87-1.67a37.6,37.6,0,0,0,2.72-3.38c.94-1.08,1.07-2.44,2-3.51-.1-.88.94-1.09,1.21-1.76.36-.92.77-1.83,1.18-2.81l1.14-1h1l1.45,1.28c1.75-.41,3,.62,4.5,1.06,1.11.32,1.89,1.32,2.82,2-.59.89-1.06,1.6-1.54,2.3-.12.18-.37.36-.38.51-.19,1.78-1.91,3.05-2.35,4.76-.08.32-.61.63-1,1l-.33,1.37-1.21.88a13.79,13.79,0,0,1-1.72,2.9,5.91,5.91,0,0,0-.9,1.42,26.82,26.82,0,0,1-3.79,5,6.31,6.31,0,0,0-.66,1.16l-1.22.68L309.19,67c-2,.45-2.27,2.94-3.94,3.56l-.49,2.06A36.56,36.56,0,0,0,301.55,76a19.71,19.71,0,0,1-3.1,3.66c-.2.17-.22.64-.34,1a3.9,3.9,0,0,0-2.24,2.08,16.52,16.52,0,0,1-2.3,2.49,4.63,4.63,0,0,1-1.26,2.34,27.9,27.9,0,0,0-3.38,4.67,29.51,29.51,0,0,1-2.6,4.15c-.75,1-1.56,2-2.35,3.09l.2.32c-1.13,1.32-1.41,3.14-2.89,4.29l-.4,1.7a6.1,6.1,0,0,0,1.9,2,7.89,7.89,0,0,1,2,2.09c1.46,1.86,2.88,3.76,4.29,5.67a8.15,8.15,0,0,1,1.12,1.84c.24.62.78.94,1,1.63.3.89,1.28,1.38,2,2l-.39.39a11.82,11.82,0,0,0,.69,1.61c.61,1,1.3,1.89,1.94,2.85a3.63,3.63,0,0,1,.76,1.59c.05.33.59.45,1.09.79a3.83,3.83,0,0,0,1,2.89,33,33,0,0,0,2.39,3,3.16,3.16,0,0,1,.5,2.9l-1.65,1a15.62,15.62,0,0,1-3.61-.22l-.18.14c-1.27-.83-2.53-1.64-3.77-2.47-.78-.53-1.29-1.41-2.28-1.68-.14-1.23-1.46-1.23-2-2.09a20,20,0,0,0-1.87-2.32c-.53-.61-1.33-1.06-1.57-1.82-.51-1.66-1.71-2.55-2.87-3.55-.2-.17-.25-.52-.35-.8-.24-.6-.29-1.43-.73-1.76s-.55-1.3-1.09-1.65-.71-.87-1.13-1.25a29.52,29.52,0,0,1-2.5-2.92H274c-.73-1.06-.73-1.06-1.64-1.28l-1.85,1.78Zm-26.44-59c-.25.21-.64.42-.68.61-.32,1.42-1.58,2.22-2.34,3.33-.37.53-.84,1-1.19,1.53-.83,1.27-1.4,2.71-2.78,3.57-.2.72-1.32,1.42-.53,2.13-2.12,2.7-2.14,2.73-2.56,4.21l-1,.88.5.73c2.57-.3,5.15-1.51,7.84-2.69l.53-3.63c.73-.6.52-1.55.81-2.42a12.63,12.63,0,0,1,1-2.8,8.28,8.28,0,0,0,.67-2.58l1-1.33-.07-1.54ZM233.45,41.32c1,.16,1.5.14,1.69-.18l-.09-1.43Z" transform="translate(-22.44 -7.65)" style="fill:#ed1c24"/></svg>
